<svg width="77" height="73" viewBox="0 0 77 73" fill="none" xmlns="http://www.w3.org/2000/svg">
<path d="M0 3C0 1.89543 0.895431 1 2 1H52C65.8071 1 77 12.1929 77 26V70C77 71.1046 76.1046 72 75 72H25C11.1929 72 0 60.8071 0 47V3Z" fill="white"/>
<path d="M65.1919 63.2747L15.4083 39.071C15.0202 38.8824 15.0202 38.3294 15.4083 38.1407L65.1919 13.937C65.5355 13.77 65.9353 14.0202 65.9353 14.4022V62.8096C65.9353 63.1916 65.5355 63.4418 65.1919 63.2747Z" fill="#2B8A3E" fill-opacity="0.6"/>
<path d="M66.0664 61.4761C66.0658 61.4758 66.0652 61.4755 66.0646 61.4752L66.0664 61.4761ZM16.2828 39.9394C16.2835 39.939 16.2842 39.9387 16.2849 39.9383L16.2828 39.9394ZM16.2849 37.2734C16.2842 37.273 16.2835 37.2727 16.2828 37.2724L16.2849 37.2734ZM64.3174 65.0734L14.5338 40.8697C12.645 39.9514 12.645 37.2603 14.5338 36.342L64.3174 12.1383C65.9894 11.3254 67.9353 12.5431 67.9353 14.4022V62.8096C67.9353 64.6686 65.9894 65.8863 64.3174 65.0734Z" stroke="#2B8A3E" stroke-opacity="0.8" stroke-width="4"/>
<path d="M10.6787 59.0326L60.4624 34.8289C60.8505 34.6402 60.8505 34.0872 60.4624 33.8985L10.6787 9.6948C10.3352 9.52777 9.93533 9.77798 9.93533 10.16V58.5674C9.93533 58.9494 10.3352 59.1996 10.6787 59.0326Z" fill="#1C7ED6" fill-opacity="0.6"/>
<path d="M9.80425 57.2339C9.80488 57.2336 9.8055 57.2333 9.80613 57.233L9.80425 57.2339ZM59.5858 33.0312C59.5865 33.0309 59.5872 33.0305 59.5879 33.0302L59.5858 33.0312ZM11.5532 60.8312L61.3369 36.6275C63.2257 35.7092 63.2256 33.0181 61.3369 32.0998L11.5532 7.89611C9.88129 7.08326 7.93533 8.30091 7.93533 10.16V58.5674C7.93533 60.4264 9.88129 61.6441 11.5532 60.8312Z" stroke="#1C7ED6" stroke-opacity="0.8" stroke-width="4"/>
</svg>
