<svg width="18" height="18" viewBox="0 0 18 18" fill="none" xmlns="http://www.w3.org/2000/svg">
<path fill-rule="evenodd" clip-rule="evenodd" d="M5.04059 17H13.799C14.6128 17 15.3074 16.4122 15.442 15.6097L16.6261 8.54965C16.8038 7.48957 15.9866 6.52381 14.9117 6.52381H10.7228C11.0219 3.51429 10.5733 1 8.44245 1L5.04059 8.2V17ZM3.05376 8.56641H0.708984V17H3.05376V8.56641Z" fill="#2ECC40"/>
<path d="M5.04059 17H4.54059V17.5H5.04059V17ZM15.442 15.6097L14.9489 15.527L14.9489 15.527L15.442 15.6097ZM16.6261 8.54965L16.1329 8.46695L16.1329 8.46695L16.6261 8.54965ZM10.7228 6.52381L10.2253 6.47437L10.1707 7.02381H10.7228V6.52381ZM8.44245 1V0.5H8.12569L7.99038 0.786401L8.44245 1ZM5.04059 8.2L4.58851 7.9864L4.54059 8.08782V8.2H5.04059ZM0.708984 8.56641V8.06641H0.208984V8.56641H0.708984ZM3.05376 8.56641H3.55376V8.06641H3.05376V8.56641ZM0.708984 17H0.208984V17.5H0.708984V17ZM3.05376 17V17.5H3.55376V17H3.05376ZM13.799 16.5H5.04059V17.5H13.799V16.5ZM14.9489 15.527C14.8547 16.0886 14.3685 16.5 13.799 16.5V17.5C14.857 17.5 15.7601 16.7357 15.9351 15.6924L14.9489 15.527ZM16.1329 8.46695L14.9489 15.527L15.9351 15.6924L17.1192 8.63236L16.1329 8.46695ZM14.9117 7.02381C15.6774 7.02381 16.2596 7.71178 16.1329 8.46695L17.1192 8.63236C17.3481 7.26735 16.2958 6.02381 14.9117 6.02381V7.02381ZM10.7228 7.02381H14.9117V6.02381H10.7228V7.02381ZM8.44245 1.5C8.86908 1.5 9.17982 1.62278 9.41842 1.82294C9.66491 2.02973 9.86928 2.34897 10.0204 2.79407C10.3267 3.69626 10.3727 4.99107 10.2253 6.47437L11.2204 6.57325C11.372 5.04703 11.3433 3.57993 10.9673 2.47259C10.7773 1.91293 10.4887 1.41551 10.0611 1.05682C9.62565 0.691503 9.08125 0.5 8.44245 0.5V1.5ZM5.49266 8.4136L8.89453 1.2136L7.99038 0.786401L4.58851 7.9864L5.49266 8.4136ZM5.54059 17V8.2H4.54059V17H5.54059ZM0.708984 9.06641H3.05376V8.06641H0.708984V9.06641ZM1.20898 17V8.56641H0.208984V17H1.20898ZM3.05376 16.5H0.708984V17.5H3.05376V16.5ZM2.55376 8.56641V17H3.55376V8.56641H2.55376Z" fill="#2ECC40"/>
</svg>
