<svg width="17" height="16" viewBox="0 0 17 16" fill="none" xmlns="http://www.w3.org/2000/svg">
<path d="M3.17789 11.2651C3.38828 11.4761 3.49363 11.7699 3.46523 12.0665C3.40159 12.7313 3.25502 13.423 3.06677 14.0657C4.46166 13.7433 5.31358 13.3693 5.70082 13.1731C5.92062 13.0617 6.17381 13.0354 6.41182 13.0992C7.06966 13.2756 7.77076 13.3712 8.5 13.3712C12.4956 13.3712 15.5 10.5636 15.5 7.37118C15.5 5.11722 13.5 4 10.5 5C9 5.5 8.37713 8.87118 6.5 8.87118C2.5044 8.87118 1.5 4.17872 1.5 7.37118C1.5 8.83927 2.1173 10.2016 3.17789 11.2651ZM2.68489 15.1701C2.67816 15.1714 2.67142 15.1728 2.66466 15.1741C2.57283 15.1922 2.47922 15.21 2.38382 15.2275C2.25 15.252 2.11264 15.2759 1.97172 15.2989C1.77271 15.3315 1.62037 15.1233 1.69898 14.9376C1.75034 14.8163 1.80097 14.6891 1.8503 14.5572C1.88164 14.4735 1.91245 14.3878 1.94259 14.3006C1.94389 14.2968 1.94518 14.2931 1.94648 14.2893C2.19422 13.5696 2.39596 12.7423 2.46979 11.9712C1.24306 10.7411 0.5 9.13205 0.5 7.37118C0.5 3.50519 4.08172 0.371179 8.5 0.371179C12.9183 0.371179 16.5 3.50519 16.5 7.37118C16.5 11.2372 12.9183 14.3712 8.5 14.3712C7.68324 14.3712 6.89508 14.2641 6.15284 14.0651C5.63337 14.3283 4.51434 14.8075 2.68489 15.1701Z" fill="black"/>
</svg>
