<svg width="13" height="13" viewBox="0 0 13 13" fill="none" xmlns="http://www.w3.org/2000/svg">
<mask id="path-1-inside-1" fill="white">
<path d="M0.302032 2.48955C-0.100677 2.08684 -0.100677 1.43392 0.302032 1.03121L1.0312 0.302033C1.43391 -0.100678 2.08684 -0.100678 2.48955 0.302033L12.6979 10.5104C13.1006 10.9132 13.1006 11.5661 12.6979 11.9688L11.9688 12.698C11.5661 13.1007 10.9131 13.1007 10.5104 12.698L0.302032 2.48955Z"/>
<path d="M12.698 2.48955C13.1007 2.08684 13.1007 1.43392 12.698 1.03121L11.9688 0.302033C11.5661 -0.100678 10.9132 -0.100678 10.5105 0.302033L0.302063 10.5104C-0.100647 10.9132 -0.100647 11.5661 0.302063 11.9688L1.03123 12.698C1.43394 13.1007 2.08687 13.1007 2.48958 12.698L12.698 2.48955Z"/>
</mask>
<path d="M0.302032 2.48955C-0.100677 2.08684 -0.100677 1.43392 0.302032 1.03121L1.0312 0.302033C1.43391 -0.100678 2.08684 -0.100678 2.48955 0.302033L12.6979 10.5104C13.1006 10.9132 13.1006 11.5661 12.6979 11.9688L11.9688 12.698C11.5661 13.1007 10.9131 13.1007 10.5104 12.698L0.302032 2.48955Z" fill="black"/>
<path d="M12.698 2.48955C13.1007 2.08684 13.1007 1.43392 12.698 1.03121L11.9688 0.302033C11.5661 -0.100678 10.9132 -0.100678 10.5105 0.302033L0.302063 10.5104C-0.100647 10.9132 -0.100647 11.5661 0.302063 11.9688L1.03123 12.698C1.43394 13.1007 2.08687 13.1007 2.48958 12.698L12.698 2.48955Z" fill="black"/>
<path d="M11.9688 12.698L12.6759 13.4051L11.9688 12.698ZM10.5104 12.698L9.80332 13.4051L9.80332 13.4051L10.5104 12.698ZM12.6979 10.5104L13.405 9.80334L13.405 9.80334L12.6979 10.5104ZM12.6979 11.9688L11.9908 11.2617L12.6979 11.9688ZM1.0312 0.302033L0.324096 -0.405073L0.324096 -0.405073L1.0312 0.302033ZM2.48955 0.302033L1.78244 1.00914L1.78244 1.00914L2.48955 0.302033ZM0.302032 1.03121L1.00914 1.73831L1.00914 1.73831L0.302032 1.03121ZM0.302032 2.48955L1.00914 1.78244L1.00914 1.78244L0.302032 2.48955ZM1.03123 12.698L1.73834 11.9909L1.73834 11.9909L1.03123 12.698ZM2.48958 12.698L3.19668 13.4051L3.19668 13.4051L2.48958 12.698ZM0.302063 10.5104L-0.405044 9.80334L-0.405044 9.80334L0.302063 10.5104ZM0.302063 11.9688L-0.405044 12.6759L-0.405044 12.6759L0.302063 11.9688ZM11.9688 0.302033L12.6759 -0.405073L12.6759 -0.405073L11.9688 0.302033ZM10.5105 0.302033L11.2176 1.00914L11.2176 1.00914L10.5105 0.302033ZM12.698 1.03121L11.9909 1.73831L11.9909 1.73831L12.698 1.03121ZM12.698 2.48955L11.9909 1.78244L11.9909 1.78244L12.698 2.48955ZM1.00914 1.73831L1.73831 1.00914L0.324096 -0.405073L-0.405075 0.3241L1.00914 1.73831ZM1.78244 1.00914L11.9908 11.2176L13.405 9.80334L3.19665 -0.405073L1.78244 1.00914ZM11.9908 11.2617L11.2617 11.9909L12.6759 13.4051L13.405 12.6759L11.9908 11.2617ZM11.2175 11.9909L1.00914 1.78244L-0.405075 3.19666L9.80332 13.4051L11.2175 11.9909ZM11.2617 11.9909C11.2573 11.9952 11.2542 11.9968 11.2518 11.9978C11.2488 11.999 11.2446 12 11.2396 12C11.2346 12 11.2304 11.999 11.2273 11.9978C11.225 11.9968 11.2219 11.9952 11.2175 11.9909L9.80332 13.4051C10.5966 14.1983 11.8826 14.1983 12.6759 13.4051L11.2617 11.9909ZM11.9908 11.2176C11.9952 11.2219 11.9968 11.225 11.9978 11.2274C11.999 11.2304 12 11.2346 12 11.2396C12 11.2446 11.999 11.2488 11.9978 11.2519C11.9968 11.2542 11.9952 11.2573 11.9908 11.2617L13.405 12.6759C14.1983 11.8827 14.1983 10.5966 13.405 9.80334L11.9908 11.2176ZM1.73831 1.00914C1.74266 1.00479 1.74577 1.00317 1.74813 1.00221C1.75115 1.00098 1.75535 1 1.76037 1C1.76539 1 1.76959 1.00098 1.77262 1.00221C1.77498 1.00317 1.77809 1.00479 1.78244 1.00914L3.19665 -0.405073C2.40342 -1.19831 1.11733 -1.19831 0.324096 -0.405073L1.73831 1.00914ZM-0.405075 0.3241C-1.19831 1.11733 -1.19831 2.40342 -0.405075 3.19666L1.00914 1.78244C1.00479 1.77809 1.00317 1.77499 1.00221 1.77263C1.00098 1.7696 1 1.7654 1 1.76038C1 1.75536 1.00098 1.75116 1.00221 1.74813C1.00317 1.74577 1.00479 1.74266 1.00914 1.73831L-0.405075 0.3241ZM13.4051 0.3241L12.6759 -0.405073L11.2617 1.00914L11.9909 1.73831L13.4051 0.3241ZM9.80335 -0.405073L-0.405044 9.80334L1.00917 11.2176L11.2176 1.00914L9.80335 -0.405073ZM-0.405044 12.6759L0.324127 13.4051L1.73834 11.9909L1.00917 11.2617L-0.405044 12.6759ZM3.19668 13.4051L13.4051 3.19666L11.9909 1.78244L1.78247 11.9909L3.19668 13.4051ZM0.324127 13.4051C1.11736 14.1983 2.40345 14.1983 3.19668 13.4051L1.78247 11.9909C1.77812 11.9952 1.77501 11.9968 1.77265 11.9978C1.76963 11.999 1.76543 12 1.76041 12C1.75539 12 1.75118 11.999 1.74816 11.9978C1.7458 11.9968 1.74269 11.9952 1.73834 11.9909L0.324127 13.4051ZM-0.405044 9.80334C-1.19828 10.5966 -1.19828 11.8827 -0.405044 12.6759L1.00917 11.2617C1.00482 11.2573 1.0032 11.2542 1.00224 11.2519C1.00101 11.2488 1.00003 11.2446 1.00003 11.2396C1.00003 11.2346 1.00101 11.2304 1.00224 11.2274C1.0032 11.225 1.00482 11.2219 1.00917 11.2176L-0.405044 9.80334ZM12.6759 -0.405073C11.8827 -1.19831 10.5966 -1.19831 9.80335 -0.405073L11.2176 1.00914C11.2219 1.00479 11.225 1.00317 11.2274 1.00221C11.2304 1.00098 11.2346 1 11.2396 1C11.2446 1 11.2488 1.00098 11.2519 1.00221C11.2542 1.00317 11.2573 1.00479 11.2617 1.00914L12.6759 -0.405073ZM11.9909 1.73831C11.9952 1.74266 11.9968 1.74577 11.9978 1.74813C11.999 1.75116 12 1.75536 12 1.76038C12 1.7654 11.999 1.7696 11.9978 1.77263C11.9968 1.77499 11.9952 1.77809 11.9909 1.78244L13.4051 3.19666C14.1983 2.40342 14.1983 1.11733 13.4051 0.3241L11.9909 1.73831Z" fill="black" mask="url(#path-1-inside-1)"/>
</svg>
