<svg width="18" height="18" viewBox="0 0 18 18" fill="none" xmlns="http://www.w3.org/2000/svg">
<path d="M1 8.2H5.07477L8.47664 1C10.6075 1 11.0561 3.51429 10.757 6.52381H14.9459C16.0208 6.52381 16.838 7.48957 16.6602 8.54965L15.4762 15.6097C15.3416 16.4122 14.6469 17 13.8332 17H5.07477H1V8.2Z" fill="white"/>
<path d="M5.07477 8.2H1V17H5.07477M5.07477 8.2V17M5.07477 8.2L8.47664 1C10.6075 1 11.0561 3.51429 10.757 6.52381H14.9459C16.0208 6.52381 16.838 7.48957 16.6602 8.54965L15.4762 15.6097C15.3416 16.4122 14.6469 17 13.8332 17H5.07477" stroke="#343A40" stroke-width="1.43"/>
</svg>
