<svg width="123" height="122" viewBox="0 0 123 122" fill="none" xmlns="http://www.w3.org/2000/svg">
<circle cx="61.5312" cy="61.3028" r="60.6113" fill="white"/>
<path d="M75.3154 60.4475L61.5312 95.9464L108.025 38.6933L101.29 44.3178L99.9702 43.7623L92.6872 51.5727C92.6872 51.5727 91.5205 47.4464 90.6102 48.5515C83.1349 57.6267 75.3154 60.4475 75.3154 60.4475Z" fill="#FBB61C"/>
<path d="M82.8415 34.1089C75.1375 52.236 75.2256 59.2854 76.2327 60.5442L62.4485 96.0431L61.5312 96.1292V7.63327L65.6585 16.7371H67.3579L68.4909 23.5347H72.4562L73.5891 37.1301L82.8415 34.1089Z" fill="#FBB61C" style="mix-blend-mode:darken"/>
<path d="M82.8415 34.1089C75.1375 52.236 75.2256 59.2854 76.2327 60.5442L62.4485 96.0431L61.5312 96.1292V7.63327L65.6585 16.7371H67.3579L68.4909 23.5347H72.4562L73.5891 37.1301L82.8415 34.1089Z" fill="black" fill-opacity="0.07" style="mix-blend-mode:darken"/>
<path d="M80.036 97.534L61.5312 93.9464L108.171 38.621L105.15 49.5728H106.094L103.073 56.748L106.094 58.4475L97.4078 67.8887C97.4078 67.8887 107.202 72.2516 106.094 72.7981C87.0737 82.1748 84.9454 86.2046 84.9454 86.2046L94.1978 93.9464L80.036 95.0793V97.534Z" fill="#FBB61C"/>
<path d="M80.036 97.534L61.5312 93.9464L108.171 38.621L105.15 49.5728H106.094L103.073 56.748L106.094 58.4475L97.4078 67.8887C97.4078 67.8887 107.202 72.2516 106.094 72.7981C87.0737 82.1748 84.9454 86.2046 84.9454 86.2046L94.1978 93.9464L80.036 95.0793V97.534Z" fill="black" fill-opacity="0.07"/>
<path d="M62.4758 95.9987L63.0296 114.984H61.5313V96.1292L62.4758 95.9987Z" fill="#FBB61C"/>
<path d="M62.4758 95.9987L63.0296 114.984H61.5313V96.1292L62.4758 95.9987Z" fill="black" fill-opacity="0.08"/>
<path d="M62.4758 95.9987L63.0296 114.984H61.5313V96.1292L62.4758 95.9987Z" stroke="black"/>
<path d="M60.5866 95.9464L60.0328 114.931H61.5311V96.0769L60.5866 95.9464Z" fill="#649D77"/>
<path d="M47.2697 60.6959L61.5311 95.9464L14.9771 38.7627L22.1292 44.3178L23.4486 43.2762L30.3752 51.5727C30.3752 51.5727 31.5419 47.4464 32.4522 48.5516C39.9275 57.6267 47.2697 60.6959 47.2697 60.6959Z" fill="#649D77"/>
<path d="M47.2697 60.6959L61.5311 95.9464L14.9771 38.7627L22.1292 44.3178L23.4486 43.2762L30.3752 51.5727C30.3752 51.5727 31.5419 47.4464 32.4522 48.5516C39.9275 57.6267 47.2697 60.6959 47.2697 60.6959Z" fill="black" fill-opacity="0.05"/>
<path d="M40.2209 34.1089C47.9249 52.236 47.8368 59.2854 46.8297 60.5442L60.6139 96.0431L61.5311 96.1292V7.62186L57.4038 16.7371H55.7044L54.5715 23.5347H50.6062L49.4732 37.1301L40.2209 34.1089Z" fill="#649D77"/>
<path d="M43.0263 97.534L61.5311 93.9464L14.8916 38.621L17.9128 49.5728H16.9686L19.9898 56.7481L16.9686 58.4475L25.6545 67.8887C25.6545 67.8887 15.8601 72.2516 16.9686 72.7981C35.9886 82.1748 38.1169 86.2046 38.1169 86.2046L28.8645 93.9464L43.0263 95.0793V97.534Z" fill="#649D77"/>
</svg>
