<svg width="239" height="239" viewBox="0 0 239 239" fill="none" xmlns="http://www.w3.org/2000/svg">
<path d="M0 234C0 236.761 2.23858 239 5 239H179.012C212.142 239 239 212.142 239 179.012V5C239 2.23859 236.761 0 234 0H59.9881C26.8576 0 0 26.8576 0 59.9881V234Z" fill="white"/>
<g filter="url(#filter0_d_1204_592)">
<path d="M213.958 11.216L41.4921 100.513C38.0629 102.289 38.0629 107.193 41.4921 108.969L213.958 198.266C217.127 199.907 220.908 197.607 220.908 194.038V15.4438C220.908 11.8752 217.127 9.57513 213.958 11.216Z" fill="#4B9B43" fill-opacity="0.67" shape-rendering="crispEdges"/>
</g>
<g filter="url(#filter1_d_1204_592)">
<path d="M23.137 35.0208L195.603 124.318C199.032 126.093 199.032 130.998 195.603 132.774L23.137 222.071C19.968 223.712 16.187 221.412 16.187 217.843V39.2486C16.187 35.68 19.968 33.3799 23.137 35.0208Z" fill="#D34B4B" fill-opacity="0.5" shape-rendering="crispEdges"/>
</g>
<defs>
<filter id="filter0_d_1204_592" x="35.1116" y="10.6765" width="189.605" height="195.747" filterUnits="userSpaceOnUse" color-interpolation-filters="sRGB">
<feFlood flood-opacity="0" result="BackgroundImageFix"/>
<feColorMatrix in="SourceAlpha" type="matrix" values="0 0 0 0 0 0 0 0 0 0 0 0 0 0 0 0 0 0 127 0" result="hardAlpha"/>
<feOffset dy="3.80876"/>
<feGaussianBlur stdDeviation="1.90438"/>
<feComposite in2="hardAlpha" operator="out"/>
<feColorMatrix type="matrix" values="0 0 0 0 0 0 0 0 0 0 0 0 0 0 0 0 0 0 0.25 0"/>
<feBlend mode="normal" in2="BackgroundImageFix" result="effect1_dropShadow_1204_592"/>
<feBlend mode="normal" in="SourceGraphic" in2="effect1_dropShadow_1204_592" result="shape"/>
</filter>
<filter id="filter1_d_1204_592" x="12.3782" y="34.4813" width="189.605" height="195.747" filterUnits="userSpaceOnUse" color-interpolation-filters="sRGB">
<feFlood flood-opacity="0" result="BackgroundImageFix"/>
<feColorMatrix in="SourceAlpha" type="matrix" values="0 0 0 0 0 0 0 0 0 0 0 0 0 0 0 0 0 0 127 0" result="hardAlpha"/>
<feOffset dy="3.80876"/>
<feGaussianBlur stdDeviation="1.90438"/>
<feComposite in2="hardAlpha" operator="out"/>
<feColorMatrix type="matrix" values="0 0 0 0 0 0 0 0 0 0 0 0 0 0 0 0 0 0 0.25 0"/>
<feBlend mode="normal" in2="BackgroundImageFix" result="effect1_dropShadow_1204_592"/>
<feBlend mode="normal" in="SourceGraphic" in2="effect1_dropShadow_1204_592" result="shape"/>
</filter>
</defs>
</svg>
